<?xml version="1.0" encoding="utf-8" standalone="no"?>
<!DOCTYPE svg PUBLIC "-//W3C//DTD SVG 1.1//EN"
  "http://www.w3.org/Graphics/SVG/1.1/DTD/svg11.dtd">
<svg xmlns:xlink="http://www.w3.org/1999/xlink" width="921.6pt" height="518.4pt" viewBox="0 0 921.6 518.4" xmlns="http://www.w3.org/2000/svg" version="1.1">
 <metadata>
  <rdf:RDF xmlns:dc="http://purl.org/dc/elements/1.1/" xmlns:cc="http://creativecommons.org/ns#" xmlns:rdf="http://www.w3.org/1999/02/22-rdf-syntax-ns#">
   <cc:Work>
    <dc:type rdf:resource="http://purl.org/dc/dcmitype/StillImage"/>
    <dc:date>2026-09-11T21:16:59.169808</dc:date>
    <dc:format>image/svg+xml</dc:format>
    <dc:creator>
     <cc:Agent>
      <dc:title>Matplotlib v3.11.1, https://matplotlib.org/</dc:title>
     </cc:Agent>
    </dc:creator>
   </cc:Work>
  </rdf:RDF>
 </metadata>
 <defs>
  <style type="text/css">*{stroke-linejoin: round; stroke-linecap: butt}</style>
 </defs>
 <g id="figure_1">
  <g id="patch_1">
   <path d="M 0 518.4 
L 921.6 518.4 
L 921.6 0 
L 0 0 
z
" style="fill: #ffffff"/>
  </g>
  <g id="axes_1">
   <g id="patch_2">
    <path d="M 43.2 336.96 
L 267.84 336.96 
L 267.84 181.44 
L 43.2 181.44 
z
" clip-path="url(#pe05a05e2c6)" style="fill: #ffffff; stroke: #444444; stroke-linejoin: miter"/>
   </g>
   <g id="patch_3">
    <path d="M 348.48 336.96 
L 573.12 336.96 
L 573.12 181.44 
L 348.48 181.44 
z
" clip-path="url(#pe05a05e2c6)" style="fill: #ffffff; stroke: #444444; stroke-linejoin: miter"/>
   </g>
   <g id="patch_4">
    <path d="M 653.76 336.96 
L 878.4 336.96 
L 878.4 181.44 
L 653.76 181.44 
z
" clip-path="url(#pe05a05e2c6)" style="fill: #ffffff; stroke: #444444; stroke-linejoin: miter"/>
   </g>
   <g id="patch_5">
    <path d="M 269.843203 259.2 
Q 308.160883 259.2 345.360529 259.2 
" clip-path="url(#pe05a05e2c6)" style="fill: none; stroke: #444444; stroke-linecap: round"/>
    <path d="M 340.160529 256.6 
L 345.360529 259.2 
L 340.160529 261.8 
" clip-path="url(#pe05a05e2c6)" style="fill: none; stroke: #444444; stroke-linecap: round"/>
   </g>
   <g id="patch_6">
    <path d="M 575.123203 259.2 
Q 613.440883 259.2 650.640529 259.2 
" clip-path="url(#pe05a05e2c6)" style="fill: none; stroke: #444444; stroke-linecap: round"/>
    <path d="M 645.440529 256.6 
L 650.640529 259.2 
L 645.440529 261.8 
" clip-path="url(#pe05a05e2c6)" style="fill: none; stroke: #444444; stroke-linecap: round"/>
   </g>
   <g id="text_1">
    <!-- 数据与预测 -->
    <g style="fill: #222222" transform="translate(120.52 229.58125) scale(0.14 -0.14)">
     <defs>
      <path id="SimSun-1ba0" d="M 1875 1525 
Q 1675 1200 1500 900 
Q 1825 825 2275 725 
Q 2500 975 2725 1525 
L 1875 1525 
z
M 850 4900 
Q 1325 4600 1425 4450 
Q 1525 4300 1525 4225 
Q 1525 4100 1437 3975 
Q 1350 3850 1300 3850 
Q 1225 3850 1150 4100 
Q 1050 4450 775 4850 
L 850 4900 
z
M 3000 4975 
L 3450 4675 
Q 3250 4625 3100 4425 
Q 2925 4225 2525 3825 
L 2450 3875 
Q 2925 4625 3000 4975 
z
M 1875 5250 
L 2425 5000 
L 2225 4825 
L 2225 3675 
L 2850 3675 
L 3125 3950 
L 3550 3525 
L 2225 3525 
L 2225 3300 
Q 2800 3175 2937 3062 
Q 3075 2950 3075 2775 
Q 3075 2700 3050 2587 
Q 3025 2475 2975 2475 
Q 2925 2475 2800 2650 
Q 2600 2925 2225 3175 
L 2225 2400 
L 1925 2200 
L 2275 2050 
Q 2150 2000 1950 1675 
L 2725 1675 
L 2900 1900 
L 3275 1575 
L 3050 1450 
Q 2800 875 2600 650 
Q 3000 550 3137 437 
Q 3275 325 3275 150 
Q 3275 -25 3200 -25 
Q 3125 -25 3025 75 
Q 2750 275 2400 425 
Q 1525 -275 325 -500 
L 300 -425 
Q 1450 -50 2100 550 
Q 1600 725 1125 800 
Q 1225 950 1525 1525 
L 1200 1525 
Q 875 1525 600 1450 
L 375 1675 
L 1575 1675 
Q 1675 1925 1775 2275 
L 1900 2225 
L 1900 3250 
Q 1225 2475 350 2050 
L 300 2125 
Q 1225 2775 1700 3525 
L 1250 3525 
Q 925 3525 650 3450 
L 425 3675 
L 1900 3675 
Q 1900 4575 1875 5250 
z
M 3925 3525 
Q 4050 2075 4525 1100 
Q 4925 1950 5025 3525 
L 3925 3525 
z
M 4050 5250 
L 4625 4925 
Q 4425 4850 4325 4625 
Q 4225 4400 3950 3675 
L 5375 3675 
L 5675 3975 
L 6125 3525 
L 5400 3525 
Q 5250 1675 4750 775 
Q 5325 75 6100 -100 
L 6100 -200 
Q 5625 -275 5600 -500 
Q 4950 -50 4525 525 
Q 3700 -275 2550 -650 
L 2500 -575 
Q 3650 -50 4325 800 
Q 3850 1975 3825 3375 
Q 3575 2725 3100 2150 
L 3025 2200 
Q 3625 3200 4050 5250 
z
" transform="scale(0.015625)"/>
      <path id="SimSun-199e" d="M 3125 -650 
Q 3150 -100 3150 512 
Q 3150 1125 3125 1600 
L 3475 1400 
L 4175 1400 
L 4175 2400 
L 3000 2400 
Q 2825 625 1675 -525 
L 1600 -450 
Q 2150 275 2437 1187 
Q 2725 2100 2737 3312 
Q 2750 4525 2725 5050 
L 3100 4825 
L 5150 4825 
L 5350 5025 
L 5700 4700 
L 5500 4575 
Q 5500 3825 5525 3475 
L 5175 3325 
L 5175 3625 
L 3075 3625 
Q 3075 3150 3025 2550 
L 4175 2550 
Q 4175 3025 4150 3475 
L 4700 3225 
L 4500 3075 
L 4500 2550 
L 5325 2550 
L 5600 2825 
L 6025 2400 
L 4500 2400 
L 4500 1400 
L 5150 1400 
L 5350 1625 
L 5700 1300 
L 5500 1150 
Q 5500 150 5525 -400 
L 5175 -600 
L 5175 -75 
L 3475 -75 
L 3475 -500 
L 3125 -650 
z
M 3075 4675 
L 3075 3775 
L 5175 3775 
L 5175 4675 
L 3075 4675 
z
M 3475 1250 
L 3475 75 
L 5175 75 
L 5175 1250 
L 3475 1250 
z
M 1675 2450 
L 2500 2925 
L 2550 2825 
L 1675 2175 
L 1675 150 
Q 1650 -300 1125 -500 
Q 1175 -250 500 25 
L 500 125 
Q 1050 25 1187 37 
Q 1325 50 1325 225 
L 1325 2000 
Q 625 1500 600 1350 
L 225 1800 
Q 375 1825 1325 2300 
L 1325 3575 
L 750 3575 
L 450 3525 
L 250 3725 
L 1325 3725 
Q 1325 4750 1300 5175 
L 1875 4875 
L 1675 4700 
L 1675 3725 
L 1950 3725 
L 2275 4000 
L 2650 3575 
L 1675 3575 
L 1675 2450 
z
" transform="scale(0.015625)"/>
      <path id="SimSun-43e" d="M 375 1250 
L 3750 1250 
L 4075 1575 
L 4550 1100 
L 1175 1100 
Q 875 1100 600 1025 
L 375 1250 
z
M 1700 2600 
Q 1800 4125 1812 4450 
Q 1825 4775 1825 5200 
L 2400 4925 
L 2200 4775 
L 2150 3850 
L 5075 3850 
L 5400 4175 
L 5875 3700 
L 2150 3700 
L 2075 2525 
L 5025 2525 
L 5225 2825 
L 5675 2500 
L 5450 2300 
Q 5400 1375 5300 687 
Q 5200 0 4937 -237 
Q 4675 -475 4250 -575 
Q 4275 -250 3425 0 
L 3450 125 
Q 4000 0 4400 0 
Q 4800 0 4925 737 
Q 5050 1475 5075 2375 
L 2100 2375 
L 1900 2125 
L 1500 2425 
L 1700 2600 
z
" transform="scale(0.015625)"/>
      <path id="SimSun-4eb4" d="M 475 4825 
L 2225 4825 
L 2425 5075 
L 2825 4675 
Q 2600 4625 2387 4412 
Q 2175 4200 1800 3750 
Q 2050 3575 2037 3400 
Q 2025 3225 1937 3150 
Q 1850 3075 1825 3075 
Q 1725 3075 1650 3300 
Q 1525 3600 1050 4100 
L 1100 4150 
Q 1475 3975 1700 3825 
L 2225 4675 
L 1300 4675 
Q 975 4675 700 4600 
L 475 4825 
z
M 725 100 
Q 1175 50 1362 37 
Q 1550 25 1550 275 
L 1550 2875 
L 1125 2875 
Q 800 2875 525 2800 
L 300 3025 
L 2525 3025 
L 2725 3275 
L 3150 2875 
Q 2800 2825 2275 2075 
L 2200 2125 
L 2550 2875 
L 1875 2875 
L 1875 150 
Q 1875 -400 1350 -500 
Q 1325 -175 725 0 
L 725 100 
z
M 3250 775 
Q 3275 1425 3275 2287 
Q 3275 3150 3250 3900 
L 3600 3700 
L 4050 3700 
Q 4175 4400 4200 4675 
L 3650 4675 
Q 3325 4675 3050 4600 
L 2825 4825 
L 5325 4825 
L 5675 5150 
L 6125 4675 
L 4675 4675 
Q 4500 4425 4175 3700 
L 5300 3700 
L 5475 3975 
L 5875 3675 
L 5675 3475 
L 5675 1950 
Q 5675 1525 5700 1075 
L 5350 875 
L 5350 3550 
L 3600 3550 
L 3600 1000 
L 3250 775 
z
M 4850 2875 
L 4625 2675 
Q 4625 1475 4475 937 
Q 4325 400 3900 50 
Q 3475 -300 2425 -625 
L 2400 -550 
Q 3500 -50 3837 400 
Q 4175 850 4237 1587 
Q 4300 2325 4275 3175 
L 4850 2875 
z
M 4650 950 
Q 5725 375 5875 212 
Q 6025 50 6025 -125 
Q 6025 -225 5962 -387 
Q 5900 -550 5850 -550 
Q 5800 -550 5750 -450 
Q 5625 -250 5437 0 
Q 5250 250 4600 875 
L 4650 950 
z
" transform="scale(0.015625)"/>
      <path id="SimSun-237b" d="M 1975 1000 
Q 2000 1475 2000 2925 
Q 2000 4375 1975 5000 
L 2350 4775 
L 3575 4775 
L 3775 4975 
L 4100 4650 
L 3900 4500 
L 3900 2350 
Q 3900 1850 3925 1350 
L 3600 1200 
L 3600 4625 
L 2325 4625 
L 2325 1150 
L 1975 1000 
z
M 2775 3975 
L 3300 3700 
L 3125 3525 
Q 3150 1825 2875 937 
Q 2600 50 1375 -600 
L 1325 -500 
Q 2200 100 2475 725 
Q 2750 1350 2775 2187 
Q 2800 3025 2775 3975 
z
M 3100 950 
Q 3825 450 3937 262 
Q 4050 75 4050 -25 
Q 4050 -150 3975 -262 
Q 3900 -375 3850 -375 
Q 3750 -375 3650 -75 
Q 3500 375 3050 875 
L 3100 950 
z
M 4475 825 
Q 4500 1200 4500 1700 
L 4500 3400 
Q 4500 3950 4475 4300 
L 5025 4025 
L 4825 3825 
L 4825 1700 
Q 4825 1325 4850 950 
L 4475 825 
z
M 5375 150 
L 5375 4050 
Q 5375 4750 5350 5125 
L 5875 4875 
L 5700 4700 
L 5700 75 
Q 5700 -200 5600 -350 
Q 5500 -500 5200 -600 
Q 5025 -225 4450 -50 
L 4450 50 
Q 5125 -50 5250 -37 
Q 5375 -25 5375 150 
z
M 1850 3500 
Q 1375 1525 1300 1225 
Q 1200 900 1212 450 
Q 1225 0 1250 -175 
Q 1250 -275 1125 -275 
Q 1025 -275 875 -225 
Q 725 -175 725 0 
Q 725 125 800 375 
Q 875 625 875 775 
Q 875 950 762 1050 
Q 650 1150 275 1250 
L 275 1350 
Q 725 1300 837 1312 
Q 950 1325 1087 1537 
Q 1225 1750 1750 3525 
L 1850 3500 
z
M 375 3775 
Q 1075 3350 1112 3100 
Q 1150 2850 1050 2775 
Q 950 2700 900 2700 
Q 800 2700 725 2975 
Q 600 3350 325 3700 
L 375 3775 
z
M 800 5100 
Q 1475 4725 1550 4512 
Q 1625 4300 1525 4187 
Q 1425 4075 1350 4075 
Q 1275 4075 1200 4300 
Q 1075 4650 750 5025 
L 800 5100 
z
" transform="scale(0.015625)"/>
     </defs>
     <use xlink:href="#SimSun-1ba0"/>
     <use xlink:href="#SimSun-199e" transform="translate(100 0)"/>
     <use xlink:href="#SimSun-43e" transform="translate(200 0)"/>
     <use xlink:href="#SimSun-4eb4" transform="translate(300 0)"/>
     <use xlink:href="#SimSun-237b" transform="translate(400 0)"/>
    </g>
    <!--  -->
    <g style="fill: #222222" transform="translate(155.52 247.65) scale(0.14 -0.14)"/>
    <!-- 负载、光伏历史数据 -->
    <g style="fill: #222222" transform="translate(92.52 275.753906) scale(0.14 -0.14)">
     <defs>
      <path id="SimSun-434f" d="M 1725 675 
Q 1750 1375 1750 2112 
Q 1750 2850 1725 3500 
Q 1275 3050 550 2600 
L 500 2675 
Q 1300 3300 1812 4050 
Q 2325 4800 2500 5250 
L 3000 4900 
L 2750 4800 
L 2525 4500 
L 3975 4500 
L 4225 4775 
L 4650 4350 
Q 4425 4300 4225 4100 
Q 4025 3900 3475 3300 
L 4700 3300 
L 4950 3550 
L 5300 3200 
L 5075 3050 
Q 5075 1525 5100 1075 
L 4725 900 
L 4725 3150 
L 2100 3150 
L 2100 850 
L 1725 675 
z
M 3325 3300 
L 4000 4350 
L 2475 4350 
Q 2075 3875 1700 3475 
L 2075 3300 
L 3325 3300 
z
M 3575 2225 
Q 3525 700 2762 175 
Q 2000 -350 525 -650 
L 525 -550 
Q 2125 -75 2600 425 
Q 3075 925 3137 1600 
Q 3200 2275 3200 2725 
L 3775 2425 
L 3575 2225 
z
M 3675 675 
L 3700 775 
Q 4450 600 4937 437 
Q 5425 275 5587 87 
Q 5750 -100 5750 -225 
Q 5750 -275 5712 -375 
Q 5675 -475 5625 -475 
Q 5525 -475 5200 -175 
Q 4775 250 3675 675 
z
" transform="scale(0.015625)"/>
      <path id="SimSun-45ad" d="M 1850 5200 
L 2375 5000 
L 2200 4825 
L 2200 4325 
L 2675 4325 
L 2975 4600 
L 3400 4175 
L 2200 4175 
L 2200 3525 
L 3700 3525 
Q 3675 4525 3650 5200 
L 4200 4950 
L 4000 4775 
Q 4000 3950 4025 3525 
L 5250 3525 
L 5625 3850 
L 6100 3375 
L 4050 3375 
Q 4125 2300 4425 1400 
Q 4925 2200 5175 3075 
L 5650 2750 
L 5450 2575 
Q 5075 1775 4575 1050 
Q 4950 350 5650 -50 
L 5875 1050 
L 5975 1025 
Q 5925 350 5950 25 
Q 5975 -300 6075 -500 
Q 6125 -625 6025 -625 
Q 5975 -625 5775 -562 
Q 5575 -500 5125 -150 
Q 4675 200 4350 775 
Q 3575 -125 2625 -600 
L 2575 -525 
Q 3575 175 4175 1075 
Q 3825 1950 3725 3375 
L 1100 3375 
Q 775 3375 500 3300 
L 275 3525 
L 1875 3525 
L 1875 4175 
L 1525 4175 
Q 1200 4175 925 4100 
L 700 4325 
L 1875 4325 
Q 1875 4800 1850 5200 
z
M 4500 4850 
Q 5000 4650 5212 4512 
Q 5425 4375 5400 4187 
Q 5375 4000 5300 3925 
Q 5225 3850 5200 3850 
Q 5125 3850 5025 4050 
Q 4900 4325 4450 4775 
L 4500 4850 
z
M 500 525 
Q 850 550 1975 725 
L 1975 1400 
L 1150 1400 
L 975 1250 
L 700 1575 
Q 900 1575 1350 2450 
L 1150 2450 
Q 850 2450 575 2375 
L 350 2600 
L 1425 2600 
Q 1625 3025 1700 3300 
L 2150 3025 
L 1975 2950 
Q 1900 2850 1775 2600 
L 2700 2600 
L 3025 2900 
L 3425 2450 
L 1700 2450 
L 1175 1550 
L 1975 1550 
Q 1975 1925 1950 2300 
L 2450 2075 
L 2300 1900 
L 2300 1550 
L 2800 1550 
L 3075 1850 
L 3475 1400 
L 2300 1400 
L 2300 775 
L 3400 925 
L 3425 850 
L 2300 575 
Q 2300 -50 2325 -400 
L 1950 -550 
Q 1975 225 1975 500 
Q 850 275 725 100 
L 500 525 
z
" transform="scale(0.015625)"/>
      <path id="SimSun-1c3" d="M 1675 325 
Q 1450 850 700 1300 
L 725 1375 
Q 1300 1250 1612 1062 
Q 1925 875 2062 725 
Q 2200 575 2237 325 
Q 2275 75 2162 -12 
Q 2050 -100 2000 -100 
Q 1850 -100 1675 325 
z
" transform="scale(0.015625)"/>
      <path id="SimSun-779" d="M 1300 4475 
L 1350 4550 
Q 2175 3975 2287 3750 
Q 2400 3525 2400 3400 
Q 2400 3250 2312 3125 
Q 2225 3000 2175 3000 
Q 2075 3000 2000 3325 
Q 1850 3775 1300 4475 
z
M 3025 2700 
L 3025 4150 
Q 3025 4550 3000 5150 
L 3600 4900 
L 3375 4675 
L 3375 2700 
L 3800 2700 
Q 4300 3525 4625 4500 
L 5150 4125 
L 4925 4000 
Q 4375 3225 3950 2700 
L 5150 2700 
L 5500 3050 
L 5975 2550 
L 3925 2550 
L 3925 325 
Q 3925 -100 4300 -100 
L 5300 -100 
Q 5475 -100 5525 137 
Q 5575 375 5625 1275 
L 5750 1275 
Q 5750 625 5800 387 
Q 5850 150 6100 0 
Q 5925 -375 5475 -400 
L 4225 -400 
Q 3600 -400 3600 200 
L 3600 2550 
L 2625 2550 
Q 2550 1150 2100 487 
Q 1650 -175 325 -650 
L 300 -550 
Q 1500 0 1862 700 
Q 2225 1400 2250 2550 
L 1200 2550 
Q 875 2550 600 2475 
L 375 2700 
L 3025 2700 
z
" transform="scale(0.015625)"/>
      <path id="SimSun-53f" d="M 1350 -675 
Q 1375 100 1375 525 
L 1375 3025 
Q 875 2200 325 1650 
L 250 1725 
Q 725 2350 1137 3162 
Q 1550 3975 1900 5225 
L 2450 4925 
L 2225 4775 
Q 1875 4050 1600 3450 
L 1950 3225 
L 1725 3050 
L 1725 550 
Q 1725 225 1750 -500 
L 1350 -675 
z
M 3650 3225 
Q 3650 4725 3625 5225 
L 4225 4950 
L 4000 4775 
L 4000 3225 
L 5325 3225 
L 5625 3525 
L 6075 3075 
L 4225 3075 
Q 4425 1625 4962 862 
Q 5500 100 6075 -75 
L 6075 -175 
Q 5625 -175 5500 -425 
Q 5175 -175 4712 637 
Q 4250 1450 4100 3075 
L 4000 3075 
Q 3925 1650 3412 800 
Q 2900 -50 1850 -650 
L 1800 -550 
Q 2625 -25 3112 887 
Q 3600 1800 3650 3075 
L 2925 3075 
Q 2600 3075 2325 3000 
L 2100 3225 
L 3650 3225 
z
M 4425 4700 
Q 5100 4400 5250 4250 
Q 5400 4100 5400 3975 
Q 5400 3875 5325 3737 
Q 5250 3600 5200 3600 
Q 5125 3600 5025 3825 
Q 4850 4175 4375 4625 
L 4425 4700 
z
" transform="scale(0.015625)"/>
      <path id="SimSun-9b6" d="M 3750 250 
Q 4325 100 4612 87 
Q 4900 75 5000 525 
Q 5100 975 5225 2875 
L 3625 2875 
Q 3500 1325 2912 587 
Q 2325 -150 1375 -550 
L 1325 -475 
Q 2250 75 2700 800 
Q 3150 1525 3275 2875 
L 2600 2875 
Q 2275 2875 2000 2800 
L 1775 3025 
L 3300 3025 
Q 3325 3525 3325 3750 
Q 3325 3975 3325 4450 
L 3900 4175 
L 3700 4000 
Q 3675 3475 3650 3025 
L 5175 3025 
L 5350 3300 
L 5800 2975 
L 5575 2800 
Q 5450 1025 5362 537 
Q 5275 50 5087 -187 
Q 4900 -425 4475 -525 
Q 4500 -175 3725 150 
L 3750 250 
z
M 325 -500 
Q 700 0 937 737 
Q 1175 1475 1200 2675 
Q 1225 3875 1200 4975 
L 1575 4750 
L 5075 4750 
L 5450 5125 
L 5975 4600 
L 1575 4600 
Q 1600 1850 1312 987 
Q 1025 125 400 -550 
L 325 -500 
z
" transform="scale(0.015625)"/>
      <path id="SimSun-a22" d="M 1675 3800 
L 1675 2475 
L 3175 2475 
L 3175 3800 
L 1675 3800 
z
M 3525 3800 
L 3525 2475 
L 5075 2475 
L 5075 3800 
L 3525 3800 
z
M 1275 4175 
L 1675 3950 
L 3175 3950 
L 3175 4650 
Q 3175 4825 3150 5250 
L 3750 5000 
L 3525 4825 
L 3525 3950 
L 5025 3950 
L 5200 4200 
L 5600 3900 
L 5425 3725 
L 5425 2750 
Q 5425 2525 5450 2200 
L 5075 2050 
L 5075 2325 
L 3525 2325 
Q 3475 1475 3200 750 
Q 3625 450 4412 250 
Q 5200 50 6125 25 
L 6125 -75 
Q 5675 -200 5625 -450 
Q 4675 -300 4050 -50 
Q 3425 200 3050 475 
Q 2550 -75 1737 -325 
Q 925 -575 375 -625 
L 375 -525 
Q 875 -450 1650 -112 
Q 2425 225 2775 700 
Q 2175 1275 1825 1925 
L 1900 1975 
Q 2425 1325 2900 950 
Q 3100 1350 3175 2325 
L 1675 2325 
L 1675 2125 
L 1275 1975 
Q 1300 2375 1300 2625 
Q 1300 3775 1275 4175 
z
" transform="scale(0.015625)"/>
     </defs>
     <use xlink:href="#SimSun-434f"/>
     <use xlink:href="#SimSun-45ad" transform="translate(100 0)"/>
     <use xlink:href="#SimSun-1c3" transform="translate(200 0)"/>
     <use xlink:href="#SimSun-779" transform="translate(300 0)"/>
     <use xlink:href="#SimSun-53f" transform="translate(400 0)"/>
     <use xlink:href="#SimSun-9b6" transform="translate(500 0)"/>
     <use xlink:href="#SimSun-a22" transform="translate(600 0)"/>
     <use xlink:href="#SimSun-1ba0" transform="translate(700 0)"/>
     <use xlink:href="#SimSun-199e" transform="translate(800 0)"/>
    </g>
    <!-- 已发布预报与骨架价 -->
    <g style="fill: #222222" transform="translate(92.52 298.826563) scale(0.14 -0.14)">
     <defs>
      <path id="SimSun-1422" d="M 950 4675 
L 4600 4675 
L 4800 4975 
L 5225 4625 
L 5000 4450 
Q 5000 2950 5025 2475 
L 4650 2325 
L 4650 2700 
L 1475 2700 
L 1475 525 
Q 1450 125 1900 150 
L 4900 150 
Q 5350 125 5400 500 
Q 5450 875 5475 1575 
L 5600 1575 
Q 5600 300 5975 250 
Q 5750 -200 5100 -150 
L 1625 -150 
Q 1100 -175 1125 475 
Q 1125 3050 1100 3450 
L 1675 3225 
L 1475 3050 
L 1475 2850 
L 4650 2850 
L 4650 4525 
L 1775 4525 
Q 1450 4525 1175 4450 
L 950 4675 
z
" transform="scale(0.015625)"/>
      <path id="SimSun-a01" d="M 2350 3600 
Q 2425 4000 2487 4437 
Q 2550 4875 2575 5250 
L 3100 5025 
L 2925 4850 
Q 2750 3850 2700 3600 
L 5200 3600 
L 5550 3950 
L 6025 3450 
L 2675 3450 
Q 2600 2975 2475 2525 
L 4625 2525 
L 4800 2800 
L 5225 2425 
L 5000 2250 
Q 4550 1425 3975 775 
Q 4800 100 6125 -150 
L 6125 -225 
Q 5750 -300 5650 -575 
Q 4475 -150 3775 525 
Q 2800 -300 1300 -625 
L 1275 -550 
Q 2825 -25 3550 775 
Q 3000 1500 2675 2375 
L 2450 2375 
Q 2175 1550 1687 812 
Q 1200 75 400 -450 
L 350 -375 
Q 750 -25 1137 500 
Q 1525 1025 1812 1687 
Q 2100 2350 2325 3450 
L 1175 3450 
L 975 3225 
L 650 3575 
L 850 3700 
Q 1200 4500 1275 4925 
L 1775 4650 
L 1575 4500 
Q 1325 3875 1200 3600 
L 2350 3600 
z
M 2800 2375 
Q 3200 1575 3750 1000 
Q 4225 1550 4625 2375 
L 2800 2375 
z
M 3850 5125 
Q 4575 4825 4800 4637 
Q 5025 4450 5025 4275 
Q 5025 4200 4962 4050 
Q 4900 3900 4850 3900 
Q 4775 3900 4650 4125 
Q 4425 4500 3800 5050 
L 3850 5125 
z
" transform="scale(0.015625)"/>
      <path id="SimSun-1433" d="M 3425 2725 
Q 3425 3225 3400 3625 
L 3975 3375 
L 3775 3200 
L 3775 2725 
L 4950 2725 
L 5150 2975 
L 5575 2650 
L 5350 2500 
L 5350 500 
Q 5300 100 4800 -50 
Q 4800 225 4175 475 
L 4175 575 
Q 4625 500 4812 500 
Q 5000 500 5000 700 
L 5000 2575 
L 3775 2575 
L 3775 550 
Q 3775 -25 3800 -500 
L 3400 -675 
Q 3425 250 3425 1025 
L 3425 2575 
L 2275 2575 
L 2275 125 
L 1900 -25 
Q 1925 775 1925 2525 
Q 1225 1650 300 1025 
L 250 1100 
Q 1300 2050 1762 2800 
Q 2225 3550 2375 3875 
L 825 3875 
L 600 3825 
L 400 4025 
L 2425 4025 
Q 2750 4725 2850 5225 
L 3450 4850 
L 3200 4725 
L 2825 4025 
L 5175 4025 
L 5550 4400 
L 6075 3875 
L 2775 3875 
Q 2500 3350 2175 2850 
L 2250 2725 
L 3425 2725 
z
" transform="scale(0.015625)"/>
      <path id="SimSun-18d5" d="M 3300 2525 
L 3300 -75 
Q 3875 425 4300 975 
Q 3850 1525 3600 2525 
L 3300 2525 
z
M 3950 3500 
Q 4300 3425 4500 3425 
Q 4625 3425 4700 3475 
Q 4775 3525 4800 3850 
Q 4825 4175 4850 4675 
L 3300 4675 
L 3300 2675 
L 5000 2675 
L 5225 2900 
L 5600 2525 
L 5350 2400 
Q 5000 1475 4650 975 
Q 5375 275 6100 150 
L 6100 75 
Q 5700 -25 5625 -225 
Q 5000 150 4475 750 
Q 3950 200 3300 -225 
L 3300 -400 
L 2925 -550 
Q 2950 325 2950 900 
L 2950 3850 
Q 2950 4475 2925 5050 
L 3325 4825 
L 4825 4825 
L 5050 5050 
L 5400 4700 
L 5200 4575 
Q 5175 4225 5150 3850 
Q 5125 3450 5000 3262 
Q 4875 3075 4550 2925 
Q 4425 3250 3950 3400 
L 3950 3500 
z
M 3725 2525 
Q 4000 1750 4450 1200 
Q 4800 1775 5025 2525 
L 3725 2525 
z
M 250 1950 
Q 400 1925 1425 2325 
L 1425 3575 
L 700 3575 
L 400 3525 
L 200 3725 
L 1425 3725 
Q 1425 4550 1400 5175 
L 1975 4900 
L 1775 4725 
L 1775 3725 
L 2100 3725 
L 2375 4000 
L 2800 3575 
L 1775 3575 
L 1775 2425 
L 2675 2775 
L 2725 2675 
L 1775 2175 
L 1775 -50 
Q 1750 -475 1225 -650 
Q 1225 -325 475 -100 
L 475 25 
Q 1075 -100 1250 -75 
Q 1425 -50 1425 250 
L 1425 2025 
Q 600 1625 550 1500 
L 250 1950 
z
" transform="scale(0.015625)"/>
      <path id="SimSun-50d8" d="M 2025 1550 
L 2025 850 
L 4275 850 
L 4275 1550 
L 2025 1550 
z
M 5150 2475 
L 5425 3075 
L 925 3075 
Q 900 2650 737 2562 
Q 575 2475 475 2475 
Q 375 2475 325 2550 
Q 275 2625 275 2650 
Q 275 2725 375 2800 
Q 500 2875 625 3062 
Q 750 3250 825 3550 
L 925 3550 
L 925 3225 
L 1675 3225 
Q 1675 4675 1650 5150 
L 2000 4925 
L 4250 4925 
L 4450 5175 
L 4850 4825 
L 4625 4675 
L 4625 3225 
L 5375 3225 
L 5600 3500 
L 6050 3050 
Q 5850 3025 5712 2937 
Q 5575 2850 5225 2450 
L 5150 2475 
z
M 2025 4775 
L 2025 4150 
L 3050 4150 
L 3225 4400 
L 3625 4075 
L 3400 3900 
L 3400 3225 
L 4275 3225 
L 4275 4775 
L 2025 4775 
z
M 2025 4000 
L 2025 3225 
L 3050 3225 
L 3050 4000 
L 2025 4000 
z
M 1650 -625 
Q 1675 225 1675 1050 
Q 1675 1875 1650 2675 
L 2025 2475 
L 4250 2475 
L 4500 2725 
L 4875 2350 
L 4625 2175 
L 4625 -75 
Q 4650 -475 4200 -650 
Q 4050 -250 3400 -175 
L 3400 -50 
Q 4050 -100 4162 -100 
Q 4275 -100 4275 75 
L 4275 700 
L 2025 700 
L 2025 -475 
L 1650 -625 
z
M 2025 2325 
L 2025 1700 
L 4275 1700 
L 4275 2325 
L 2025 2325 
z
" transform="scale(0.015625)"/>
      <path id="SimSun-1de6" d="M 3350 1425 
Q 3350 -200 3375 -450 
L 2975 -625 
Q 3000 200 3000 1375 
Q 2125 0 300 -550 
L 275 -450 
Q 1925 225 2575 1425 
L 1275 1425 
Q 950 1425 675 1350 
L 450 1575 
L 3000 1575 
Q 3000 1900 2975 2350 
L 3575 2100 
L 3350 1925 
L 3350 1575 
L 5200 1575 
L 5550 1925 
L 6050 1425 
L 3600 1425 
Q 4375 300 6000 75 
L 6000 -25 
Q 5625 -75 5500 -350 
Q 4125 100 3475 1425 
L 3350 1425 
z
M 500 4300 
L 1550 4300 
Q 1550 4750 1525 5250 
L 2100 4950 
L 1900 4775 
L 1900 4300 
L 2600 4300 
L 2825 4550 
L 3175 4225 
L 2975 4075 
Q 2925 2925 2887 2700 
Q 2850 2475 2687 2325 
Q 2525 2175 2250 2100 
Q 2275 2350 1700 2575 
L 1725 2675 
Q 2275 2550 2400 2600 
Q 2525 2650 2562 2850 
Q 2600 3050 2650 4150 
L 1900 4150 
Q 1900 2550 450 1775 
L 400 1850 
Q 1550 2700 1550 4150 
L 925 4150 
L 700 4100 
L 500 4300 
z
M 3750 2300 
Q 3775 2900 3775 3500 
Q 3775 4100 3750 4700 
L 4125 4475 
L 5125 4475 
L 5350 4700 
L 5675 4375 
L 5475 4225 
Q 5475 2875 5500 2575 
L 5150 2400 
L 5150 2825 
L 4100 2825 
L 4100 2475 
L 3750 2300 
z
M 4100 4325 
L 4100 2975 
L 5150 2975 
L 5150 4325 
L 4100 4325 
z
" transform="scale(0.015625)"/>
      <path id="SimSun-527" d="M 4175 4875 
L 3950 4725 
Q 4350 4025 4900 3562 
Q 5450 3100 6125 2950 
L 6125 2875 
Q 5750 2825 5650 2575 
Q 4475 3275 3875 4600 
Q 3450 3800 2962 3287 
Q 2475 2775 1900 2400 
L 1850 2475 
Q 2400 2900 2900 3637 
Q 3400 4375 3650 5200 
L 4175 4875 
z
M 3375 2550 
Q 3375 1600 3275 1087 
Q 3175 575 2875 200 
Q 2575 -175 1875 -550 
L 1825 -475 
Q 2350 -100 2575 225 
Q 2800 550 2912 975 
Q 3025 1400 3025 3000 
L 3600 2725 
L 3375 2550 
z
M 4400 -700 
Q 4425 -100 4425 400 
L 4425 1950 
Q 4425 2525 4400 3025 
L 4975 2750 
L 4750 2550 
L 4750 525 
Q 4750 50 4775 -500 
L 4400 -700 
z
M 1325 3250 
Q 750 2375 350 2025 
L 275 2100 
Q 500 2375 750 2775 
Q 1000 3175 1250 3762 
Q 1500 4350 1725 5200 
L 2275 4875 
L 2050 4725 
Q 1900 4425 1475 3500 
L 1825 3300 
L 1675 3150 
L 1675 800 
Q 1675 125 1700 -425 
L 1275 -625 
Q 1325 150 1325 775 
L 1325 3250 
z
" transform="scale(0.015625)"/>
     </defs>
     <use xlink:href="#SimSun-1422"/>
     <use xlink:href="#SimSun-a01" transform="translate(100 0)"/>
     <use xlink:href="#SimSun-1433" transform="translate(200 0)"/>
     <use xlink:href="#SimSun-4eb4" transform="translate(300 0)"/>
     <use xlink:href="#SimSun-18d5" transform="translate(400 0)"/>
     <use xlink:href="#SimSun-43e" transform="translate(500 0)"/>
     <use xlink:href="#SimSun-50d8" transform="translate(600 0)"/>
     <use xlink:href="#SimSun-1de6" transform="translate(700 0)"/>
     <use xlink:href="#SimSun-527" transform="translate(800 0)"/>
    </g>
   </g>
   <g id="text_2">
    <!-- 优化与执行 -->
    <g style="fill: #222222" transform="translate(425.8 229.553906) scale(0.14 -0.14)">
     <defs>
      <path id="SimSun-548" d="M 1275 -600 
Q 1300 125 1300 600 
L 1300 3275 
Q 725 2450 300 2025 
L 225 2100 
Q 650 2675 1087 3562 
Q 1525 4450 1750 5225 
L 2275 4900 
Q 2000 4725 1425 3550 
L 1850 3325 
L 1650 3125 
L 1650 475 
Q 1650 225 1675 -400 
L 1275 -600 
z
M 4275 4875 
Q 5225 4550 5287 4400 
Q 5350 4250 5350 4150 
Q 5350 4025 5287 3900 
Q 5225 3775 5175 3775 
Q 5075 3775 4975 4000 
Q 4775 4350 4225 4800 
L 4275 4875 
z
M 3275 3325 
L 3275 4175 
Q 3275 4700 3250 5175 
L 3850 4900 
L 3625 4700 
L 3625 3325 
L 5025 3325 
L 5350 3650 
L 5825 3175 
L 4325 3175 
L 4325 300 
Q 4325 -50 4675 -50 
L 5425 -50 
Q 5600 0 5650 350 
Q 5700 700 5700 1100 
L 5825 1100 
Q 5825 725 5862 387 
Q 5900 50 6125 0 
Q 5925 -350 5575 -350 
L 4575 -350 
Q 4000 -375 4000 125 
L 4000 3175 
L 3625 3175 
Q 3600 2275 3425 1587 
Q 3250 900 2850 362 
Q 2450 -175 1750 -650 
L 1675 -575 
Q 2200 -150 2550 387 
Q 2900 925 3075 1625 
Q 3250 2325 3275 3175 
L 2725 3175 
Q 2400 3175 2125 3100 
L 1900 3325 
L 3275 3325 
z
" transform="scale(0.015625)"/>
      <path id="SimSun-946" d="M 1375 -600 
Q 1400 200 1400 925 
L 1400 3125 
Q 850 2300 350 1775 
L 275 1850 
Q 825 2625 1300 3650 
Q 1775 4675 1900 5200 
L 2450 4875 
L 2200 4725 
Q 1875 4000 1600 3475 
L 1950 3275 
L 1750 3075 
L 1750 350 
Q 1750 75 1775 -400 
L 1375 -600 
z
M 3450 2125 
L 3450 3925 
Q 3450 4475 3425 5200 
L 4000 4925 
L 3800 4725 
L 3800 2400 
Q 4150 2725 4562 3225 
Q 4975 3725 5150 4025 
L 5600 3600 
L 5325 3525 
Q 4600 2700 3800 2000 
L 3800 425 
Q 3800 0 4225 0 
L 5300 0 
Q 5500 0 5550 325 
Q 5600 650 5600 1325 
L 5725 1325 
Q 5775 650 5850 425 
Q 5925 200 6125 125 
Q 5900 -325 5400 -325 
L 4075 -325 
Q 3450 -325 3450 250 
L 3450 1775 
Q 2800 1275 1950 925 
L 1925 1025 
Q 2800 1525 3450 2125 
z
" transform="scale(0.015625)"/>
      <path id="SimSun-1897" d="M 3450 3500 
Q 3425 4750 3400 5175 
L 4025 4900 
L 3800 4725 
L 3800 3525 
L 4625 3600 
L 4800 3875 
L 5200 3575 
L 5000 3400 
Q 4925 2925 4925 2325 
Q 4925 1925 4975 1225 
Q 5025 525 5600 100 
L 5950 1225 
L 6050 1200 
Q 5975 925 5937 475 
Q 5900 25 6050 -275 
Q 6075 -325 6075 -400 
Q 6075 -525 6100 -500 
Q 6125 -475 5975 -475 
Q 5925 -475 5637 -362 
Q 5350 -250 5025 237 
Q 4700 725 4650 1187 
Q 4600 1650 4600 2150 
Q 4600 2800 4650 3450 
L 3800 3375 
Q 3775 2475 3650 1825 
Q 4225 1550 4325 1400 
Q 4425 1250 4425 1125 
Q 4425 1050 4375 925 
Q 4325 800 4300 800 
Q 4225 800 4125 975 
Q 3925 1250 3575 1550 
Q 3050 100 1825 -650 
L 1775 -575 
Q 2850 275 3275 1725 
Q 2875 2000 2575 2150 
L 2600 2250 
Q 2925 2125 3325 1975 
Q 3425 2450 3450 3350 
L 2850 3300 
L 2650 3200 
L 2375 3425 
L 3450 3500 
z
M 250 1900 
Q 525 1950 1475 2325 
L 1475 3575 
L 1075 3575 
Q 750 3575 475 3500 
L 250 3725 
L 1475 3725 
Q 1475 4600 1450 5225 
L 2050 4950 
L 1825 4800 
L 1825 3725 
L 2150 3725 
L 2425 4000 
L 2850 3575 
L 1825 3575 
L 1825 2450 
L 2725 2825 
L 2775 2725 
L 1825 2200 
L 1825 200 
Q 1875 -400 1275 -625 
Q 1300 -325 525 -75 
L 525 25 
Q 1125 -50 1300 -37 
Q 1475 -25 1475 250 
L 1475 2025 
Q 1075 1825 675 1600 
L 550 1450 
L 250 1900 
z
" transform="scale(0.015625)"/>
      <path id="SimSun-3e7c" d="M 2825 4550 
L 4950 4550 
L 5300 4875 
L 5725 4400 
L 3650 4400 
Q 3325 4400 3050 4325 
L 2825 4550 
z
M 3050 100 
Q 3725 50 3950 50 
Q 4175 50 4175 350 
L 4175 2900 
L 3225 2900 
Q 2900 2900 2625 2825 
L 2400 3050 
L 5275 3050 
L 5650 3400 
L 6075 2900 
L 4525 2900 
L 4525 225 
Q 4550 -450 3900 -575 
Q 3900 -225 3050 -25 
L 3050 100 
z
M 1825 5175 
L 2275 4825 
Q 2100 4775 1675 4300 
Q 1250 3800 600 3325 
L 550 3400 
Q 975 3800 1337 4312 
Q 1700 4825 1825 5175 
z
M 1875 2325 
L 1875 -400 
L 1500 -625 
Q 1525 -75 1525 2425 
Q 950 1825 400 1450 
L 350 1525 
Q 875 2050 1362 2700 
Q 1850 3350 2100 3950 
L 2525 3575 
L 2300 3450 
Q 1975 2975 1750 2700 
L 2025 2475 
L 1875 2325 
z
" transform="scale(0.015625)"/>
     </defs>
     <use xlink:href="#SimSun-548"/>
     <use xlink:href="#SimSun-946" transform="translate(100 0)"/>
     <use xlink:href="#SimSun-43e" transform="translate(200 0)"/>
     <use xlink:href="#SimSun-1897" transform="translate(300 0)"/>
     <use xlink:href="#SimSun-3e7c" transform="translate(400 0)"/>
    </g>
    <!--  -->
    <g style="fill: #222222" transform="translate(460.8 247.65) scale(0.14 -0.14)"/>
    <!-- 购电计划 -->
    <g style="fill: #222222" transform="translate(432.8 275.808594) scale(0.14 -0.14)">
     <defs>
      <path id="SimSun-435d" d="M 1900 1000 
Q 2825 550 2937 350 
Q 3050 150 3050 50 
Q 3050 -75 2975 -175 
Q 2900 -275 2850 -275 
Q 2775 -275 2700 -75 
Q 2550 225 2300 500 
Q 2050 775 1875 925 
L 1900 1000 
z
M 625 1100 
Q 650 2025 650 3025 
Q 650 4025 625 4850 
L 975 4675 
L 2325 4675 
L 2550 4900 
L 2875 4575 
L 2675 4425 
L 2675 2025 
Q 2675 1800 2700 1300 
L 2350 1125 
L 2350 4525 
L 975 4525 
L 975 1250 
L 625 1100 
z
M 200 -550 
Q 1525 500 1500 2375 
Q 1500 3575 1475 3925 
L 2025 3650 
L 1825 3475 
L 1825 2350 
Q 1875 375 250 -625 
L 200 -550 
z
M 3750 3875 
Q 3375 3075 2825 2500 
L 2750 2550 
Q 3125 3125 3400 3837 
Q 3675 4550 3775 5250 
L 4350 4975 
L 4125 4825 
Q 3950 4425 3800 4025 
L 5475 4025 
L 5725 4275 
L 6075 3925 
L 5875 3775 
Q 5825 2025 5775 1150 
Q 5725 275 5562 -50 
Q 5400 -375 4975 -550 
Q 4825 -150 4150 25 
L 4175 125 
Q 4725 25 5000 25 
Q 5125 25 5212 62 
Q 5300 100 5375 475 
Q 5450 850 5475 1737 
Q 5500 2625 5525 3875 
L 3750 3875 
z
M 3300 1275 
L 4675 1375 
Q 4500 1725 4300 2025 
L 4350 2100 
Q 4975 1625 5050 1462 
Q 5125 1300 5125 1200 
Q 5125 1075 5025 975 
Q 4925 875 4875 875 
Q 4825 875 4825 950 
Q 4775 1100 4700 1300 
Q 3525 1025 3275 825 
L 2975 1300 
Q 3275 1325 3562 2087 
Q 3850 2850 3900 3225 
L 4425 2950 
L 4200 2800 
Q 3750 1750 3300 1275 
z
" transform="scale(0.015625)"/>
      <path id="SimSun-2b65" d="M 2875 3900 
Q 2875 4625 2850 5225 
L 3425 4950 
L 3225 4775 
L 3225 3900 
L 4750 3900 
L 5000 4150 
L 5350 3800 
L 5125 3625 
Q 5125 1625 5150 1125 
L 4775 950 
L 4775 1250 
L 3225 1250 
L 3225 125 
Q 3225 -150 3525 -150 
L 5250 -150 
Q 5475 -125 5500 112 
Q 5525 350 5550 1075 
L 5675 1075 
Q 5675 450 5762 250 
Q 5850 50 6025 -75 
Q 5925 -275 5775 -362 
Q 5625 -450 5350 -450 
L 3400 -450 
Q 2875 -450 2875 50 
L 2875 1250 
L 1375 1250 
L 1375 900 
L 1000 725 
Q 1025 1575 1025 2475 
Q 1025 3375 1000 4125 
L 1400 3900 
L 2875 3900 
z
M 1375 3750 
L 1375 2675 
L 2875 2675 
L 2875 3750 
L 1375 3750 
z
M 3225 3750 
L 3225 2675 
L 4775 2675 
L 4775 3750 
L 3225 3750 
z
M 1375 2525 
L 1375 1400 
L 2875 1400 
L 2875 2525 
L 1375 2525 
z
M 3225 2525 
L 3225 1400 
L 4775 1400 
L 4775 2525 
L 3225 2525 
z
" transform="scale(0.015625)"/>
      <path id="SimSun-41d1" d="M 975 4975 
L 1000 5050 
Q 1550 4800 1762 4625 
Q 1975 4450 1975 4275 
Q 1975 4100 1887 4025 
Q 1800 3950 1775 3950 
Q 1650 3950 1550 4250 
Q 1375 4625 975 4975 
z
M 1650 375 
L 2625 1225 
L 2675 1150 
Q 1800 25 1600 -350 
L 1225 75 
Q 1325 225 1325 550 
L 1325 2800 
L 675 2800 
L 900 2800 
Q 750 2800 475 2725 
L 250 2950 
L 1275 2950 
L 1550 3225 
L 1900 2875 
L 1650 2700 
L 1650 375 
z
M 3850 2925 
Q 3850 4600 3825 5100 
L 4425 4825 
L 4225 4625 
L 4225 2925 
L 5350 2925 
L 5675 3250 
L 6125 2775 
L 4225 2775 
L 4225 500 
Q 4225 0 4250 -425 
L 3825 -600 
Q 3850 175 3850 575 
L 3850 2775 
L 2575 2775 
L 2950 2775 
Q 2650 2775 2375 2700 
L 2150 2925 
L 3850 2925 
z
" transform="scale(0.015625)"/>
      <path id="SimSun-842" d="M 3537 -487 
Q 3075 -425 2687 -112 
Q 2300 200 2025 700 
Q 1350 175 300 -225 
L 275 -125 
Q 1400 475 1900 1000 
Q 1625 1800 1550 3100 
L 750 3025 
L 500 2925 
L 225 3125 
L 1550 3250 
Q 1475 4750 1450 5225 
L 2075 4975 
L 1850 4775 
Q 1875 3975 1900 3300 
L 3025 3425 
L 3300 3750 
L 3800 3350 
L 1900 3150 
Q 1950 1925 2200 1250 
Q 2525 1600 2750 1925 
Q 2975 2250 3150 2575 
L 3575 2200 
L 3325 2075 
Q 2775 1375 2300 950 
Q 2450 600 2775 300 
Q 3100 0 3525 -75 
L 3775 1025 
L 3900 1000 
Q 3850 525 3862 150 
Q 3875 -225 3950 -325 
Q 4000 -425 4000 -450 
Q 4000 -550 3537 -487 
z
M 2275 4750 
Q 3100 4475 3150 4287 
Q 3200 4100 3112 3987 
Q 3025 3875 2975 3875 
Q 2900 3875 2825 4025 
Q 2675 4250 2225 4675 
L 2275 4750 
z
M 4550 3850 
L 4550 1850 
Q 4550 1425 4575 1025 
L 4200 825 
Q 4225 1575 4225 2675 
Q 4225 3775 4200 4275 
L 4725 4025 
L 4550 3850 
z
M 4400 100 
Q 5100 -50 5250 0 
Q 5400 50 5425 250 
L 5425 3650 
Q 5425 4550 5400 5250 
L 5925 5000 
L 5750 4825 
L 5750 150 
Q 5750 -75 5637 -262 
Q 5525 -450 5175 -575 
Q 5150 -275 4375 0 
L 4400 100 
z
" transform="scale(0.015625)"/>
     </defs>
     <use xlink:href="#SimSun-435d"/>
     <use xlink:href="#SimSun-2b65" transform="translate(100 0)"/>
     <use xlink:href="#SimSun-41d1" transform="translate(200 0)"/>
     <use xlink:href="#SimSun-842" transform="translate(300 0)"/>
    </g>
    <!-- 储能充放电 -->
    <g style="fill: #222222" transform="translate(425.8 298.908594) scale(0.14 -0.14)">
     <defs>
      <path id="SimSun-6d8" d="M 3875 1850 
L 3875 1050 
L 5200 1050 
L 5200 1850 
L 3875 1850 
z
M 3875 900 
L 3875 75 
L 5200 75 
L 5200 900 
L 3875 900 
z
M 3525 -625 
Q 3550 -25 3550 325 
L 3550 1700 
Q 3150 1350 2700 1150 
L 2675 1250 
Q 3125 1550 3550 1950 
L 3550 2175 
L 3675 2100 
Q 4050 2475 4325 2800 
L 3650 2800 
Q 3325 2800 3050 2725 
L 2825 2950 
L 3975 2950 
L 3975 3875 
L 3650 3875 
L 3375 3825 
L 3175 4025 
L 3975 4025 
Q 3975 4900 3950 5200 
L 4475 4900 
L 4300 4725 
L 4300 4025 
L 4425 4025 
L 4675 4275 
L 5050 3875 
L 4300 3875 
L 4300 2950 
L 4400 2950 
Q 4675 3325 4962 3775 
Q 5250 4225 5375 4525 
L 5825 4175 
Q 5600 4050 5425 3825 
Q 5250 3600 4750 2950 
L 5450 2950 
L 5725 3225 
L 6125 2800 
L 4675 2800 
Q 4325 2425 3875 2000 
L 5175 2000 
L 5375 2250 
L 5750 1925 
L 5525 1775 
L 5525 375 
Q 5525 100 5550 -450 
L 5200 -575 
L 5200 -75 
L 3875 -75 
L 3875 -475 
L 3525 -625 
z
M 2175 4475 
L 2250 4550 
Q 2800 4100 2812 3912 
Q 2825 3725 2712 3625 
Q 2600 3525 2575 3525 
Q 2500 3525 2475 3700 
Q 2425 3950 2175 4475 
z
M 2550 500 
L 3250 1000 
L 3300 925 
Q 2575 175 2450 -150 
L 2125 200 
Q 2225 325 2225 600 
L 2225 2550 
L 2000 2550 
L 1775 2500 
L 1575 2700 
L 2200 2700 
L 2425 2925 
L 2750 2600 
L 2550 2450 
L 2550 500 
z
M 1075 -575 
Q 1100 475 1100 825 
L 1100 3075 
Q 650 2400 300 2000 
L 225 2050 
Q 650 2725 1025 3600 
Q 1400 4475 1575 5150 
L 2075 4775 
Q 1875 4700 1700 4325 
Q 1525 3950 1325 3500 
L 1600 3350 
L 1425 3200 
L 1425 625 
Q 1425 200 1450 -425 
L 1075 -575 
z
" transform="scale(0.015625)"/>
      <path id="SimSun-372d" d="M 1775 5250 
L 2225 4875 
Q 1950 4800 1550 4375 
Q 1150 3925 900 3700 
L 2800 3750 
Q 2575 4175 2375 4400 
L 2425 4475 
Q 2850 4225 3075 4012 
Q 3300 3800 3287 3612 
Q 3275 3425 3175 3337 
Q 3075 3250 3025 3250 
Q 2975 3250 2975 3325 
Q 2925 3450 2850 3650 
Q 2425 3600 1700 3525 
Q 975 3450 750 3275 
L 500 3750 
Q 750 3750 1175 4275 
Q 1600 4800 1775 5250 
z
M 825 -600 
Q 850 -75 850 1325 
Q 850 2725 825 3100 
L 1200 2900 
L 2475 2900 
L 2675 3150 
L 3050 2825 
L 2850 2650 
L 2850 100 
Q 2900 -375 2350 -600 
Q 2325 -275 1700 -100 
L 1700 0 
Q 2175 -50 2350 -50 
Q 2525 -50 2525 225 
L 2525 1100 
L 1200 1100 
L 1200 -400 
L 825 -600 
z
M 1200 2750 
L 1200 2125 
L 2525 2125 
L 2525 2750 
L 1200 2750 
z
M 1200 1975 
L 1200 1250 
L 2525 1250 
L 2525 1975 
L 1200 1975 
z
M 3700 3075 
Q 3700 4825 3675 5100 
L 4250 4850 
L 4025 4650 
L 4025 3775 
Q 4800 4175 5175 4675 
L 5550 4250 
L 5325 4225 
Q 4600 3850 4025 3650 
L 4025 3175 
Q 4025 2900 4400 2900 
L 5250 2900 
Q 5500 2925 5525 3162 
Q 5550 3400 5550 3800 
L 5650 3800 
Q 5675 3500 5725 3262 
Q 5775 3025 6000 2950 
Q 5850 2625 5275 2625 
L 4225 2625 
Q 3700 2600 3700 3075 
z
M 3625 50 
Q 3625 2000 3600 2300 
L 4175 2025 
L 3950 1850 
L 3950 1050 
Q 4825 1525 5250 2125 
L 5650 1650 
L 5425 1650 
Q 4600 1200 3950 900 
L 3950 275 
Q 3950 -125 4325 -100 
L 5300 -100 
Q 5575 -75 5600 250 
Q 5600 550 5625 925 
L 5725 925 
Q 5750 500 5812 262 
Q 5875 25 6075 -25 
Q 5950 -375 5325 -400 
L 4175 -400 
Q 3650 -400 3625 50 
z
" transform="scale(0.015625)"/>
      <path id="SimSun-775" d="M 1575 2600 
L 4675 2600 
Q 4450 2875 3750 3425 
L 3800 3525 
Q 5225 2800 5300 2562 
Q 5375 2325 5375 2275 
Q 5375 2125 5275 2025 
Q 5175 1925 5125 1925 
Q 5075 1925 5025 2025 
Q 4925 2200 4750 2475 
L 3875 2425 
L 3875 200 
Q 3875 -100 4200 -100 
L 5150 -100 
Q 5450 -100 5487 175 
Q 5525 450 5550 1200 
L 5675 1200 
Q 5725 450 5787 262 
Q 5850 75 6025 -75 
Q 5825 -450 5300 -425 
L 4100 -425 
Q 3525 -425 3525 100 
L 3525 2400 
L 2650 2350 
Q 2525 1100 2112 475 
Q 1700 -150 450 -625 
L 400 -525 
Q 1550 25 1875 725 
Q 2200 1425 2275 2325 
Q 1525 2275 1275 2150 
L 1050 2625 
Q 1425 2625 1975 3200 
Q 2525 3775 2725 4100 
L 1150 4100 
Q 825 4100 550 4025 
L 325 4250 
L 3050 4250 
Q 3075 4625 2650 5175 
L 2725 5250 
Q 3300 4925 3375 4775 
Q 3450 4625 3450 4550 
Q 3450 4400 3275 4250 
L 5050 4250 
L 5400 4600 
L 5900 4100 
L 2800 4100 
L 3250 3750 
Q 2975 3675 2550 3325 
Q 2125 2975 1575 2600 
z
" transform="scale(0.015625)"/>
      <path id="SimSun-1b6e" d="M 3750 3300 
Q 3950 2300 4400 1375 
Q 4800 2075 5025 3700 
L 3925 3700 
Q 3825 3500 3750 3300 
z
M 4225 1075 
Q 3775 1975 3650 3125 
Q 3300 2400 3225 2375 
L 3150 2425 
Q 3700 3725 3950 5250 
L 4525 4925 
L 4300 4800 
Q 4125 4275 3975 3850 
L 5300 3850 
L 5600 4150 
L 6050 3700 
L 5400 3700 
Q 5175 1975 4600 1075 
Q 5325 125 6150 -75 
L 6150 -175 
Q 5700 -175 5625 -425 
Q 4925 50 4400 800 
Q 3550 -150 2325 -600 
L 2300 -525 
Q 3550 125 4225 1075 
z
M 1350 5125 
Q 1925 4825 2062 4675 
Q 2200 4525 2200 4400 
Q 2200 4325 2162 4212 
Q 2125 4100 2012 4075 
Q 1900 4050 1825 4325 
Q 1725 4575 1300 5050 
L 1350 5125 
z
M 1450 350 
Q 2000 225 2150 237 
Q 2300 250 2362 525 
Q 2425 800 2462 1375 
Q 2500 1950 2525 2600 
L 1550 2600 
Q 1500 1525 1262 812 
Q 1025 100 300 -550 
L 250 -475 
Q 825 275 987 950 
Q 1150 1625 1175 2262 
Q 1200 2900 1200 3725 
L 725 3725 
L 500 3675 
L 300 3875 
L 2725 3875 
L 3000 4150 
L 3425 3725 
L 1550 3725 
L 1550 2750 
L 2500 2750 
L 2725 2975 
L 3050 2650 
L 2850 2500 
Q 2775 800 2725 537 
Q 2675 275 2600 125 
Q 2525 -25 2400 -125 
Q 2275 -225 2000 -300 
Q 1950 75 1425 250 
L 1450 350 
z
" transform="scale(0.015625)"/>
     </defs>
     <use xlink:href="#SimSun-6d8"/>
     <use xlink:href="#SimSun-372d" transform="translate(100 0)"/>
     <use xlink:href="#SimSun-775" transform="translate(200 0)"/>
     <use xlink:href="#SimSun-1b6e" transform="translate(300 0)"/>
     <use xlink:href="#SimSun-2b65" transform="translate(400 0)"/>
    </g>
   </g>
   <g id="text_3">
    <!-- 回放与结算 -->
    <g style="fill: #222222" transform="translate(731.08 229.608594) scale(0.14 -0.14)">
     <defs>
      <path id="SimSun-d0e" d="M 2450 3200 
L 2450 1800 
L 3925 1800 
L 3925 3200 
L 2450 3200 
z
M 2100 1100 
Q 2125 1650 2125 2312 
Q 2125 2975 2100 3575 
L 2475 3350 
L 3900 3350 
L 4075 3575 
L 4475 3300 
L 4275 3125 
Q 4275 1750 4300 1350 
L 3925 1200 
L 3925 1650 
L 2450 1650 
L 2450 1250 
L 2100 1100 
z
M 5500 4475 
L 5500 1075 
Q 5500 500 5525 -250 
L 5175 -400 
L 5175 100 
L 1250 100 
L 1250 -375 
L 875 -525 
Q 900 150 900 2200 
Q 900 4250 875 4925 
L 1250 4700 
L 5150 4700 
L 5300 4950 
L 5700 4675 
L 5500 4475 
z
M 1250 4550 
L 1250 250 
L 5175 250 
L 5175 4550 
L 1250 4550 
z
" transform="scale(0.015625)"/>
      <path id="SimSun-3503" d="M 4050 3900 
Q 4050 4925 4025 5250 
L 4625 4925 
L 4375 4750 
L 4375 3900 
L 5300 3900 
L 5600 4200 
L 6025 3750 
L 4375 3750 
L 4375 2625 
L 5050 2625 
L 5350 2925 
L 5775 2475 
L 3650 2475 
Q 3325 2475 3050 2400 
L 2825 2625 
L 4050 2625 
L 4050 3750 
L 3425 3750 
Q 3100 3750 2825 3675 
L 2600 3900 
L 4050 3900 
z
M 3025 -600 
Q 3050 -50 3050 675 
Q 3050 1400 3025 1925 
L 3425 1700 
L 5125 1700 
L 5350 1925 
L 5700 1575 
L 5475 1425 
L 5475 400 
Q 5475 -150 5500 -375 
L 5150 -525 
L 5150 -25 
L 3375 -25 
L 3375 -425 
L 3025 -600 
z
M 3375 1550 
L 3375 125 
L 5150 125 
L 5150 1550 
L 3375 1550 
z
M 975 1550 
L 2700 1825 
L 2700 1725 
Q 2400 1650 1750 1462 
Q 1100 1275 800 1050 
L 525 1500 
Q 725 1575 900 1750 
Q 1075 1925 1725 2825 
Q 1425 2775 1150 2712 
Q 875 2650 625 2500 
L 400 2950 
Q 650 2950 987 3662 
Q 1325 4375 1525 5125 
L 2050 4850 
L 1825 4725 
Q 1300 3725 800 2950 
L 1800 2975 
Q 2100 3450 2275 3850 
L 2725 3525 
L 2500 3400 
Q 1800 2475 975 1550 
z
M 650 -250 
L 400 225 
Q 750 275 1237 387 
Q 1725 500 2750 800 
L 2775 700 
Q 925 -25 650 -250 
z
" transform="scale(0.015625)"/>
      <path id="SimSun-31c7" d="M 2675 1525 
Q 2650 1125 2600 750 
L 3825 750 
L 3825 1525 
L 2675 1525 
z
M 4900 2075 
Q 4900 1875 4925 1425 
L 4550 1275 
L 4550 1525 
L 4175 1525 
L 4175 775 
L 5300 775 
L 5650 1100 
L 6100 625 
L 4175 625 
Q 4175 -225 4200 -475 
L 3800 -650 
Q 3825 100 3825 600 
L 2575 600 
Q 2400 50 1837 -250 
Q 1275 -550 625 -650 
L 600 -575 
Q 1325 -325 1687 -62 
Q 2050 200 2200 600 
L 1125 600 
Q 800 600 525 525 
L 300 750 
L 2225 750 
Q 2275 1100 2300 1525 
L 1850 1525 
L 1850 1325 
L 1500 1200 
Q 1525 1975 1512 2787 
Q 1500 3600 1475 3775 
L 1850 3575 
L 4525 3575 
L 4675 3800 
L 5075 3525 
L 4900 3375 
L 4900 2075 
z
M 1850 3425 
L 1850 2975 
L 4550 2975 
L 4550 3425 
L 1850 3425 
z
M 1850 2825 
L 1850 2350 
L 4550 2350 
L 4550 2825 
L 1850 2825 
z
M 1850 2200 
L 1850 1675 
L 4550 1675 
L 4550 2200 
L 1850 2200 
z
M 1575 5275 
L 2075 5000 
Q 1925 4925 1837 4825 
Q 1750 4725 1600 4500 
L 2700 4500 
L 3000 4800 
L 3400 4350 
L 2125 4350 
Q 2650 4075 2587 3887 
Q 2525 3700 2462 3662 
Q 2400 3625 2350 3625 
Q 2275 3625 2250 3712 
Q 2225 3800 2200 3975 
Q 2150 4125 1950 4350 
L 1525 4350 
Q 1275 3975 1050 3725 
Q 825 3475 475 3225 
L 425 3300 
Q 650 3525 950 3950 
Q 1250 4375 1575 5275 
z
M 4000 5250 
L 4450 4950 
Q 4325 4925 4200 4775 
Q 4075 4625 3975 4475 
L 5325 4475 
L 5625 4750 
L 6000 4325 
L 4675 4325 
Q 5300 4125 5300 3937 
Q 5300 3750 5212 3675 
Q 5125 3600 5100 3600 
Q 5050 3600 4987 3712 
Q 4925 3825 4850 3962 
Q 4775 4100 4500 4325 
L 3900 4325 
Q 3725 4150 3575 3975 
Q 3400 3775 3225 3625 
L 3150 3675 
Q 3450 4050 3712 4562 
Q 3975 5075 4000 5250 
z
" transform="scale(0.015625)"/>
     </defs>
     <use xlink:href="#SimSun-d0e"/>
     <use xlink:href="#SimSun-1b6e" transform="translate(100 0)"/>
     <use xlink:href="#SimSun-43e" transform="translate(200 0)"/>
     <use xlink:href="#SimSun-3503" transform="translate(300 0)"/>
     <use xlink:href="#SimSun-31c7" transform="translate(400 0)"/>
    </g>
    <!--  -->
    <g style="fill: #222222" transform="translate(766.08 247.65) scale(0.14 -0.14)"/>
    <!-- 实际供需与储电量 -->
    <g style="fill: #222222" transform="translate(710.08 275.78125) scale(0.14 -0.14)">
     <defs>
      <path id="SimSun-11ce" d="M 1950 3625 
Q 2575 3400 2700 3250 
Q 2825 3100 2825 2975 
Q 2825 2850 2750 2700 
Q 2675 2550 2625 2550 
Q 2550 2550 2450 2800 
Q 2275 3175 1900 3550 
L 1950 3625 
z
M 3575 1325 
Q 3500 1100 3425 925 
Q 4650 550 5087 325 
Q 5525 100 5512 -225 
Q 5500 -550 5400 -550 
Q 5300 -550 5075 -300 
Q 4625 175 3375 800 
Q 3025 175 2300 -150 
Q 1575 -475 425 -625 
L 425 -525 
Q 1475 -325 2200 100 
Q 2925 525 3200 1325 
L 1225 1325 
Q 900 1325 625 1250 
L 400 1475 
L 3225 1475 
Q 3325 1950 3375 2575 
Q 3425 3200 3425 3700 
L 4050 3400 
L 3850 3225 
Q 3750 2300 3625 1475 
L 5175 1475 
L 5550 1850 
L 6075 1325 
L 3575 1325 
z
M 1275 2700 
Q 1975 2425 2100 2262 
Q 2225 2100 2225 1975 
Q 2225 1850 2150 1700 
Q 2075 1550 2025 1550 
Q 1950 1550 1850 1800 
Q 1675 2175 1225 2625 
L 1275 2700 
z
M 2750 5225 
L 2825 5275 
Q 3225 5100 3425 4925 
Q 3625 4750 3625 4600 
Q 3625 4450 3512 4300 
Q 3400 4150 3325 4150 
Q 3250 4150 3200 4400 
Q 3100 4775 2750 5225 
z
M 4975 3225 
L 5350 3925 
L 1175 3925 
Q 1225 3525 1125 3300 
Q 1025 3075 787 3100 
Q 550 3125 550 3200 
Q 550 3300 700 3475 
Q 975 3825 1050 4375 
L 1150 4375 
L 1175 4075 
L 5300 4075 
L 5575 4350 
L 6050 3800 
Q 5625 3825 5050 3175 
L 4975 3225 
z
" transform="scale(0.015625)"/>
      <path id="SimSun-4c75" d="M 4750 2300 
Q 5600 1475 5762 1187 
Q 5925 900 5925 700 
Q 5925 575 5850 450 
Q 5775 325 5750 325 
Q 5650 325 5550 625 
Q 5400 1050 5200 1412 
Q 5000 1775 4675 2250 
L 4750 2300 
z
M 2750 4725 
L 5000 4725 
L 5275 5000 
L 5675 4575 
L 3450 4575 
Q 3250 4575 2975 4500 
L 2750 4725 
z
M 2275 3200 
L 5400 3200 
L 5700 3500 
L 6125 3050 
L 4325 3050 
L 4325 175 
Q 4325 -50 4225 -212 
Q 4125 -375 3700 -525 
Q 3650 -175 2975 50 
L 2975 150 
Q 3675 25 3825 37 
Q 3975 50 3975 275 
L 3975 3050 
L 3100 3050 
Q 2775 3050 2500 2975 
L 2275 3200 
z
M 3625 2125 
L 3400 1975 
Q 2675 600 1900 50 
L 1850 125 
Q 2375 750 2687 1400 
Q 3000 2050 3100 2450 
L 3625 2125 
z
M 700 -550 
Q 725 700 725 2587 
Q 725 4475 700 5050 
L 1050 4825 
L 1950 4825 
L 2175 5050 
L 2525 4700 
L 2300 4550 
L 1600 3200 
Q 2050 2750 2212 2475 
Q 2375 2200 2387 1912 
Q 2400 1625 2275 1375 
Q 2150 1125 1625 950 
Q 1550 1300 1050 1475 
L 1050 -375 
L 700 -550 
z
M 1475 3200 
L 1975 4675 
L 1050 4675 
L 1050 1575 
Q 1675 1425 1862 1475 
Q 2050 1525 2050 1962 
Q 2050 2400 1475 3200 
z
" transform="scale(0.015625)"/>
      <path id="SimSun-5cb" d="M 3375 3475 
L 3375 1725 
L 4450 1725 
L 4450 3475 
L 3375 3475 
z
M 3050 3625 
L 3050 4350 
Q 3050 4725 3025 5200 
L 3575 4925 
L 3375 4750 
L 3375 3625 
L 4450 3625 
L 4450 4525 
Q 4450 4825 4425 5175 
L 4975 4900 
L 4775 4750 
L 4775 3625 
L 5200 3625 
L 5500 3925 
L 5950 3475 
L 4775 3475 
L 4775 1725 
L 5375 1725 
L 5700 2050 
L 6175 1575 
L 2575 1575 
Q 2250 1575 1975 1500 
L 1750 1725 
L 3050 1725 
L 3050 3475 
L 2925 3475 
Q 2600 3475 2325 3400 
L 2100 3625 
L 3050 3625 
z
M 3175 1300 
L 3650 900 
L 3400 800 
Q 2550 -225 1775 -675 
L 1725 -600 
Q 2175 -225 2612 362 
Q 3050 950 3175 1300 
z
M 4325 1125 
Q 5400 500 5612 287 
Q 5825 75 5825 -112 
Q 5825 -300 5762 -400 
Q 5700 -500 5675 -500 
Q 5600 -500 5525 -350 
Q 5375 -100 5037 287 
Q 4700 675 4275 1050 
L 4325 1125 
z
M 1225 -675 
Q 1250 150 1250 550 
L 1250 3100 
Q 725 2400 325 2000 
L 250 2075 
Q 650 2575 1050 3325 
Q 1450 4075 1825 5225 
L 2350 4850 
L 2125 4750 
Q 1725 3975 1475 3500 
L 1775 3350 
L 1575 3200 
L 1575 350 
Q 1575 100 1600 -500 
L 1225 -675 
z
" transform="scale(0.015625)"/>
      <path id="SimSun-4d30" d="M 2625 1600 
L 2800 2225 
L 1325 2225 
Q 1125 2225 850 2150 
L 625 2375 
L 5050 2375 
L 5375 2700 
L 5825 2225 
L 3250 2225 
Q 2875 1825 2750 1600 
L 4975 1600 
L 5125 1825 
L 5525 1525 
L 5325 1350 
L 5325 -100 
Q 5325 -475 4875 -600 
Q 4825 -275 4300 -175 
L 4300 -75 
Q 4625 -100 4812 -100 
Q 5000 -100 5000 75 
L 5000 1450 
L 4000 1450 
L 4000 -150 
L 3675 -325 
L 3675 1450 
L 2800 1450 
L 2800 -200 
L 2475 -375 
L 2475 1450 
L 1500 1450 
L 1500 -450 
L 1125 -625 
Q 1150 -100 1150 687 
Q 1150 1475 1125 1800 
L 1500 1600 
L 2625 1600 
z
M 3725 3000 
L 4875 3000 
L 4875 2850 
L 3725 2850 
L 3725 3000 
z
M 3450 2775 
L 3075 2625 
Q 3100 3325 3100 4075 
L 1125 4075 
Q 1175 3825 1100 3637 
Q 1025 3450 850 3437 
Q 675 3425 637 3475 
Q 600 3525 600 3550 
Q 600 3625 725 3750 
Q 900 3925 1025 4450 
L 1100 4450 
L 1125 4225 
L 3100 4225 
L 3100 4700 
L 1875 4700 
Q 1675 4700 1400 4625 
L 1175 4850 
L 4625 4850 
L 4950 5175 
L 5425 4700 
L 3425 4700 
L 3425 4225 
L 5350 4225 
L 5575 4475 
L 6000 4025 
Q 5850 4025 5662 3950 
Q 5475 3875 5150 3450 
L 5075 3500 
L 5375 4075 
L 3425 4075 
Q 3425 2875 3450 2775 
z
M 1500 3600 
L 2625 3600 
L 2625 3450 
L 1500 3450 
L 1500 3600 
z
M 3725 3600 
L 4875 3600 
L 4875 3450 
L 3725 3450 
L 3725 3600 
z
M 1425 3000 
L 2625 3000 
L 2625 2850 
L 1425 2850 
L 1425 3000 
z
" transform="scale(0.015625)"/>
      <path id="SimSun-47ff" d="M 1700 2400 
L 1700 1875 
L 3025 1875 
L 3025 2400 
L 1700 2400 
z
M 3350 2400 
L 3350 1875 
L 4625 1875 
L 4625 2400 
L 3350 2400 
z
M 1700 1725 
L 1700 1225 
L 3025 1225 
L 3025 1725 
L 1700 1725 
z
M 3350 1725 
L 3350 1225 
L 4625 1225 
L 4625 1725 
L 3350 1725 
z
M 4950 2325 
Q 4950 1350 4975 1025 
L 4625 875 
L 4625 1075 
L 3350 1075 
L 3350 525 
L 4700 525 
L 5050 825 
L 5450 375 
L 3350 375 
L 3350 -225 
L 5275 -225 
L 5650 125 
L 6075 -375 
L 1175 -375 
Q 850 -375 575 -450 
L 350 -225 
L 3025 -225 
L 3025 375 
L 1725 375 
Q 1400 375 1125 300 
L 900 525 
L 3025 525 
L 3025 1075 
L 1700 1075 
L 1700 925 
L 1350 800 
Q 1375 1300 1375 1787 
Q 1375 2275 1350 2750 
L 1700 2550 
L 4600 2550 
L 4750 2750 
L 5125 2475 
L 4950 2325 
z
M 1775 4800 
L 1775 4375 
L 4550 4375 
L 4550 4800 
L 1775 4800 
z
M 1775 4225 
L 1775 3775 
L 4550 3775 
L 4550 4225 
L 1775 4225 
z
M 4875 4750 
Q 4875 3825 4900 3525 
L 4550 3375 
L 4550 3625 
L 1775 3625 
L 1775 3400 
L 1425 3250 
Q 1450 3650 1450 4262 
Q 1450 4875 1425 5125 
L 1800 4950 
L 4500 4950 
L 4650 5175 
L 5050 4900 
L 4875 4750 
z
M 250 3125 
L 5375 3125 
L 5725 3450 
L 6150 2975 
L 950 2975 
Q 750 2975 475 2900 
L 250 3125 
z
" transform="scale(0.015625)"/>
     </defs>
     <use xlink:href="#SimSun-11ce"/>
     <use xlink:href="#SimSun-4c75" transform="translate(100 0)"/>
     <use xlink:href="#SimSun-5cb" transform="translate(200 0)"/>
     <use xlink:href="#SimSun-4d30" transform="translate(300 0)"/>
     <use xlink:href="#SimSun-43e" transform="translate(400 0)"/>
     <use xlink:href="#SimSun-6d8" transform="translate(500 0)"/>
     <use xlink:href="#SimSun-2b65" transform="translate(600 0)"/>
     <use xlink:href="#SimSun-47ff" transform="translate(700 0)"/>
    </g>
    <!-- 费用与约束检验 -->
    <g style="fill: #222222" transform="translate(717.08 298.908594) scale(0.14 -0.14)">
     <defs>
      <path id="SimSun-4369" d="M 1525 425 
Q 1550 975 1550 1362 
Q 1550 1750 1550 2175 
L 1900 2075 
L 4500 2075 
L 4700 2300 
L 5075 1950 
L 4850 1825 
Q 4850 1025 4875 700 
L 4500 500 
L 4500 1925 
L 1900 1925 
L 1900 600 
L 1525 425 
z
M 2975 1825 
L 3525 1550 
L 3325 1400 
Q 3250 825 3037 450 
Q 2825 75 2237 -212 
Q 1650 -500 600 -625 
L 600 -525 
Q 1675 -325 2175 37 
Q 2675 400 2812 787 
Q 2950 1175 2975 1825 
z
M 3375 500 
L 3400 600 
Q 4725 350 5037 125 
Q 5350 -100 5350 -275 
Q 5350 -325 5300 -450 
Q 5250 -575 5175 -575 
Q 5100 -575 4975 -450 
Q 4750 -200 4462 -12 
Q 4175 175 3375 500 
z
M 2750 4350 
L 2750 3825 
L 3650 3825 
L 3650 4350 
L 2750 4350 
z
M 3975 4350 
L 3975 3825 
L 4950 3825 
L 4950 4350 
L 3975 4350 
z
M 2750 3675 
Q 2725 3450 2675 3225 
L 3650 3225 
L 3650 3675 
L 2750 3675 
z
M 1450 3675 
L 1325 3225 
L 2325 3225 
Q 2400 3425 2425 3675 
L 1450 3675 
z
M 5750 2950 
Q 5650 2625 5537 2450 
Q 5425 2275 5075 2150 
Q 5075 2425 4650 2625 
L 4675 2700 
Q 4975 2600 5100 2600 
Q 5200 2600 5275 2662 
Q 5350 2725 5425 3075 
L 3975 3075 
Q 3975 2725 4000 2350 
L 3625 2200 
Q 3650 2700 3650 3075 
L 2625 3075 
Q 2200 2300 625 1900 
L 600 2000 
Q 1850 2425 2275 3075 
L 1300 3075 
L 1125 2875 
L 825 3175 
Q 950 3250 1025 3475 
Q 1100 3700 1150 4025 
L 1475 3825 
L 2425 3825 
L 2425 4350 
L 1675 4350 
Q 1350 4350 1075 4275 
L 850 4500 
L 2425 4500 
Q 2425 4875 2400 5250 
L 2925 4975 
L 2750 4775 
L 2750 4500 
L 3650 4500 
Q 3650 4825 3625 5250 
L 4150 4950 
L 3975 4800 
L 3975 4500 
L 4900 4500 
L 5100 4725 
L 5475 4400 
L 5275 4250 
Q 5275 3800 5300 3575 
L 4950 3400 
L 4950 3675 
L 3975 3675 
L 3975 3225 
L 5425 3225 
L 5650 3450 
L 6000 3100 
L 5750 2950 
z
" transform="scale(0.015625)"/>
      <path id="SimSun-2b58" d="M 3400 3150 
L 3400 1825 
L 5075 1825 
L 5075 3150 
L 3400 3150 
z
M 4075 100 
Q 4725 50 4900 62 
Q 5075 75 5075 400 
L 5075 1675 
L 3400 1675 
Q 3400 75 3425 -225 
L 3050 -400 
Q 3075 1025 3075 1675 
L 1425 1675 
Q 1250 350 375 -600 
L 300 -550 
Q 775 225 950 1025 
Q 1125 1825 1125 3225 
Q 1125 4625 1100 5075 
L 1475 4825 
L 5050 4825 
L 5225 5100 
L 5625 4800 
L 5425 4600 
L 5425 225 
Q 5450 -400 4875 -575 
Q 4825 -150 4075 -25 
L 4075 100 
z
M 1475 4675 
L 1475 3300 
L 3075 3300 
L 3075 4675 
L 1475 4675 
z
M 3400 4675 
L 3400 3300 
L 5075 3300 
L 5075 4675 
L 3400 4675 
z
M 1475 3150 
Q 1450 2100 1425 1825 
L 3075 1825 
L 3075 3150 
L 1475 3150 
z
" transform="scale(0.015625)"/>
      <path id="SimSun-34d6" d="M 3400 2650 
Q 4275 2050 4275 1787 
Q 4275 1525 4187 1425 
Q 4100 1325 4050 1325 
Q 3950 1325 3875 1600 
Q 3775 1975 3325 2600 
L 3400 2650 
z
M 3850 175 
Q 4775 125 4962 150 
Q 5150 175 5212 587 
Q 5275 1000 5300 3575 
L 3550 3575 
Q 3075 2800 2575 2300 
L 2500 2350 
Q 3000 3075 3325 3875 
Q 3650 4675 3725 5125 
L 4275 4825 
L 4075 4700 
Q 3850 4225 3600 3725 
L 5250 3725 
L 5425 4000 
L 5825 3700 
L 5650 3525 
Q 5625 2050 5600 1075 
Q 5575 100 5337 -137 
Q 5100 -375 4750 -475 
Q 4725 -75 3850 75 
L 3850 175 
z
M 1475 5100 
L 2000 4825 
Q 1700 4500 1500 4050 
Q 1275 3600 800 2900 
L 1925 3000 
Q 2200 3450 2450 4075 
L 2925 3750 
Q 2675 3575 2250 2950 
Q 1800 2325 975 1400 
Q 1350 1450 2750 1775 
L 2775 1675 
Q 1950 1400 1525 1250 
Q 1100 1100 750 825 
L 425 1325 
Q 575 1350 850 1612 
Q 1125 1875 1825 2850 
Q 1475 2775 1200 2700 
Q 925 2625 675 2450 
L 400 2900 
Q 700 3000 1025 3737 
Q 1350 4475 1475 5100 
z
M 450 125 
Q 1525 350 2900 775 
L 2925 675 
Q 1800 250 1362 37 
Q 925 -175 775 -375 
L 450 125 
z
" transform="scale(0.015625)"/>
      <path id="SimSun-1d8f" d="M 3350 3250 
L 3350 2075 
L 4750 2075 
L 4750 3250 
L 3350 3250 
z
M 1200 1400 
Q 1225 1900 1225 2487 
Q 1225 3075 1200 3625 
L 1625 3400 
L 2975 3400 
L 2975 4200 
L 1200 4200 
Q 875 4200 600 4125 
L 375 4350 
L 2975 4350 
Q 2975 4825 2950 5275 
L 3600 5000 
L 3350 4800 
L 3350 4350 
L 5225 4350 
L 5575 4700 
L 6075 4200 
L 3350 4200 
L 3350 3400 
L 4700 3400 
L 4900 3675 
L 5325 3350 
L 5125 3200 
Q 5125 2150 5150 1750 
L 4750 1575 
L 4750 1925 
L 3600 1925 
Q 4400 475 6025 150 
L 6025 50 
Q 5550 -25 5475 -300 
Q 3975 550 3475 1925 
L 3350 1925 
Q 3350 -50 3375 -450 
L 2950 -650 
Q 2975 325 2975 1750 
Q 2025 250 325 -475 
L 275 -400 
Q 1875 575 2625 1925 
L 1600 1925 
L 1600 1575 
L 1200 1400 
z
M 1600 3250 
L 1600 2075 
L 2975 2075 
L 2975 3250 
L 1600 3250 
z
" transform="scale(0.015625)"/>
      <path id="SimSun-1ef0" d="M 3725 5275 
L 4275 4975 
L 4075 4850 
Q 4775 3450 6125 3250 
L 6125 3150 
Q 5725 3125 5625 2850 
Q 4450 3375 4000 4775 
Q 3500 3425 2275 2675 
L 2200 2750 
Q 3400 3725 3725 5275 
z
M 2725 2800 
L 4575 2800 
L 4825 3050 
L 5225 2650 
L 3525 2650 
Q 3150 2650 2950 2575 
L 2725 2800 
z
M 2650 1900 
L 2725 1925 
Q 3200 1200 3262 987 
Q 3325 775 3325 650 
Q 3325 450 3212 350 
Q 3100 250 3075 250 
Q 2975 250 2950 575 
Q 2925 1000 2650 1900 
z
M 3525 2350 
L 3600 2375 
Q 4175 1575 4250 1225 
Q 4325 875 4187 762 
Q 4050 650 4000 650 
Q 3900 650 3875 975 
Q 3850 1425 3525 2350 
z
M 5500 2125 
L 5275 2000 
Q 4925 625 4500 -125 
L 5275 -125 
L 5600 200 
L 6075 -275 
L 2875 -275 
Q 2550 -275 2275 -350 
L 2050 -125 
L 4350 -125 
Q 4800 1200 4950 2425 
L 5500 2125 
z
M 1650 750 
Q 1650 400 1675 -500 
L 1275 -650 
Q 1300 825 1300 2375 
Q 900 1475 300 850 
L 250 925 
Q 975 1950 1275 3550 
L 675 3550 
L 450 3500 
L 250 3700 
L 1300 3700 
Q 1300 4375 1275 5250 
L 1875 5000 
L 1650 4825 
L 1650 3700 
L 2025 3700 
L 2300 3975 
L 2725 3550 
L 1650 3550 
L 1650 2975 
Q 2050 2800 2250 2625 
Q 2450 2450 2450 2275 
Q 2450 2200 2375 2050 
Q 2300 1900 2275 1900 
Q 2200 1900 2100 2150 
Q 1925 2525 1650 2825 
L 1650 750 
z
" transform="scale(0.015625)"/>
      <path id="SimSun-50bc" d="M 4050 5225 
L 4550 4925 
L 4350 4800 
Q 5050 3225 6125 2975 
L 6125 2900 
Q 5750 2850 5650 2600 
Q 4700 3325 4275 4725 
Q 3575 3225 2525 2475 
L 2475 2550 
Q 3075 3150 3500 3925 
Q 3925 4700 4050 5225 
z
M 3025 2800 
L 4650 2800 
L 4950 3100 
L 5350 2650 
L 3850 2650 
Q 3525 2650 3250 2575 
L 3025 2800 
z
M 2925 2000 
L 3000 2050 
Q 3475 1300 3537 1100 
Q 3600 900 3600 775 
Q 3600 625 3512 475 
Q 3425 325 3312 337 
Q 3200 350 3175 800 
Q 3150 1250 2925 2000 
z
M 3650 2225 
L 3725 2275 
Q 4375 1450 4425 1100 
Q 4475 750 4337 650 
Q 4200 550 4175 550 
Q 4075 550 4050 800 
Q 4025 1150 3900 1562 
Q 3775 1975 3650 2225 
z
M 5175 2300 
L 5700 1950 
Q 5525 1875 5325 1412 
Q 5125 950 4675 -150 
L 5300 -150 
L 5650 200 
L 6100 -300 
L 3375 -300 
Q 3050 -300 2775 -375 
L 2550 -150 
L 4525 -150 
Q 5175 1900 5175 2300 
z
M 400 4675 
L 1950 4675 
L 2150 4925 
L 2525 4600 
L 2300 4450 
L 2050 2275 
L 2225 2275 
L 2375 2475 
L 2750 2175 
L 2550 2025 
Q 2425 500 2300 175 
Q 2175 -150 1975 -287 
Q 1775 -425 1550 -475 
Q 1525 -125 825 100 
L 850 200 
Q 1550 50 1725 62 
Q 1900 75 2012 437 
Q 2125 800 2225 2125 
L 1000 2125 
L 825 1925 
L 500 2225 
L 675 2325 
Q 875 3750 900 4200 
L 1400 3925 
L 1200 3775 
L 1000 2275 
L 1725 2275 
L 1975 4525 
L 1225 4525 
Q 900 4525 625 4450 
L 400 4675 
z
M 225 1075 
Q 725 1125 2000 1375 
L 2025 1275 
Q 600 850 500 650 
L 225 1075 
z
" transform="scale(0.015625)"/>
     </defs>
     <use xlink:href="#SimSun-4369"/>
     <use xlink:href="#SimSun-2b58" transform="translate(100 0)"/>
     <use xlink:href="#SimSun-43e" transform="translate(200 0)"/>
     <use xlink:href="#SimSun-34d6" transform="translate(300 0)"/>
     <use xlink:href="#SimSun-1d8f" transform="translate(400 0)"/>
     <use xlink:href="#SimSun-1ef0" transform="translate(500 0)"/>
     <use xlink:href="#SimSun-50bc" transform="translate(600 0)"/>
    </g>
   </g>
  </g>
 </g>
 <defs>
  <clipPath id="pe05a05e2c6">
   <rect x="0" y="0" width="921.6" height="518.4"/>
  </clipPath>
 </defs>
</svg>
